<svg width="30" height="32" viewBox="0 0 30 32" fill="none" xmlns="http://www.w3.org/2000/svg">
<path d="M12.1874 11.3743H0.937073C0.411993 11.3743 -0.000457764 11.7868 -0.000457764 12.3119V18.8746H13.125V12.3119C13.125 11.7868 12.7125 11.3743 12.1874 11.3743ZM23.2184 23.5622L16.875 25.4373V31.0625C16.875 31.5874 17.2875 32 17.8126 32H29.0629C29.588 32 30.0005 31.5874 30.0005 31.0625V25.4373L23.2184 23.5622ZM3.47497 5.34949L5.62473 3.19973V8.43672C5.62473 8.95493 6.04405 9.37425 6.56226 9.37425C7.08046 9.37425 7.49979 8.95493 7.49979 8.43672V3.19973L9.64955 5.34949C9.83268 5.53262 10.0726 5.62419 10.3124 5.62419C10.5522 5.62419 10.7921 5.53262 10.9752 5.34949C11.3414 4.98329 11.3414 4.38996 10.9752 4.02376L7.22622 0.274761C7.13947 0.187758 7.03553 0.118755 6.92021 0.0710038C6.69108 -0.0237493 6.43338 -0.0237493 6.20425 0.0710038C6.08887 0.118755 5.98499 0.187758 5.89824 0.274761L2.14924 4.02376C1.78304 4.38996 1.78304 4.98329 2.14924 5.34949C2.51544 5.71569 3.10877 5.71569 3.47497 5.34949ZM20.3505 12.9747L22.5003 10.825V16.062C22.5003 16.5802 22.9196 16.9995 23.4378 16.9995C23.956 16.9995 24.3754 16.5802 24.3754 16.062V10.825L26.5251 12.9747C26.7082 13.1579 26.9481 13.2494 27.1879 13.2494C27.4278 13.2494 27.6677 13.1579 27.8508 12.9747C28.217 12.6085 28.217 12.0152 27.8508 11.649L24.1018 7.90008C24.015 7.81308 23.9111 7.74407 23.7958 7.69632C23.5666 7.60157 23.3089 7.60157 23.0798 7.69632C22.9644 7.74407 22.8605 7.81308 22.7738 7.90008L19.0248 11.649C18.6586 12.0152 18.6586 12.6085 19.0248 12.9747C19.391 13.3409 19.9843 13.3409 20.3505 12.9747ZM-0.000457764 31.0625C-0.000457764 31.5874 0.411993 32 0.937073 32H12.1874C12.7125 32 13.125 31.5874 13.125 31.0625V25.4373H-0.000457764V31.0625Z" fill="url(#paint0_linear)"/>
<defs>
<linearGradient id="paint0_linear" x1="15" y1="32" x2="15" y2="0" gradientUnits="userSpaceOnUse">
<stop stop-color="#A93AFF"/>
<stop offset="1" stop-color="#FF81FF"/>
</linearGradient>
</defs>
</svg>
